<?xml version="1.0" encoding="UTF-8"?><svg id="a" xmlns="http://www.w3.org/2000/svg" xmlns:xlink="http://www.w3.org/1999/xlink" viewBox="0 0 1920 1080"><defs><filter id="b" x="16.9" y="381.44" width="880" height="522" filterUnits="userSpaceOnUse"><feOffset dx="0" dy="0"/><feGaussianBlur result="c" stdDeviation="30"/><feFlood flood-color="#ffe0d7" flood-opacity=".4"/><feComposite in2="c" operator="in"/><feComposite in="SourceGraphic"/></filter></defs><g style="filter:url(#b);"><path d="M470.69,568.1h17.07v-80.42h28.08v-15.52h-72.94v15.52h27.79v80.42ZM577.63,552.72h-19.33v-65.18h19.33v-15.38h-55.45v15.38h19.33v65.18h-19.33v15.38h55.45v-15.38ZM648.95,566.47c2.77-1.36,4.84-3.53,6.21-6.49,1.36-2.96,2.05-6.75,2.05-11.36v-15.38h-16.51v12.56c0,1.79-.24,3.2-.71,4.23-.47,1.04-1.18,1.79-2.12,2.26-.94.47-2.26.71-3.95.71h-24.97c-1.79,0-3.15-.23-4.09-.71-.94-.47-1.65-1.22-2.12-2.26-.47-1.03-.71-2.44-.71-4.23v-51.36c0-1.79.26-3.2.78-4.23.52-1.03,1.22-1.79,2.12-2.26.89-.47,2.23-.7,4.02-.7h24.97c1.69,0,3.01.24,3.95.7.94.47,1.64,1.22,2.12,2.26.47,1.04.71,2.45.71,4.23v12.56h16.51v-15.38c0-4.61-.71-8.39-2.12-11.36-1.41-2.96-3.48-5.13-6.21-6.49-2.73-1.36-6.21-2.05-10.44-2.05h-34.57c-4.23,0-7.74.68-10.51,2.05-2.78,1.36-4.87,3.53-6.28,6.49-1.41,2.96-2.12,6.75-2.12,11.36v57c0,4.61.71,8.4,2.12,11.36,1.41,2.96,3.5,5.13,6.28,6.49,2.77,1.36,6.28,2.05,10.51,2.05h34.71c4.14,0,7.59-.68,10.37-2.05ZM420.32,568.1h17.49l-9.31-36.82c1.98-.75,3.6-1.83,4.87-3.24,1.27-1.41,2.23-3.22,2.89-5.43.66-2.21.99-4.82.99-7.83v-23.56c0-4.23-.68-7.76-2.05-10.58-1.36-2.82-3.46-4.94-6.28-6.35s-6.3-2.12-10.44-2.12h-50.93v95.94h16.93v-34.57h27.65l8.18,34.57ZM384.48,487.68h29.77c1.5,0,2.73.16,3.67.49.94.33,1.6.92,1.97,1.76.37.85.56,2.07.56,3.67v18.48c0,1.6-.19,2.85-.56,3.74-.38.9-1.04,1.51-1.97,1.83-.94.33-2.17.49-3.67.49h-29.77v-30.48ZM366.46,620.45c-3.67-1.88-8.43-2.83-14.27-2.83h-13.28c-5.84,0-10.6.94-14.27,2.83-3.67,1.88-6.5,4.99-8.48,9.32-1.98,4.34-2.97,10.08-2.97,17.24v74.12c8.1,7.86,16.29,15.62,24.58,23.25v-96.24c0-1.88.23-3.39.71-4.52.47-1.13,1.17-1.93,2.12-2.4.94-.47,2.16-.71,3.67-.71h2.54c1.51,0,2.73.24,3.67.71.94.47,1.65,1.27,2.12,2.4.47,1.13.71,2.64.71,4.52v110.29c8.11,7.21,16.3,14.33,24.58,21.32v-132.74c0-7.16-.99-12.9-2.97-17.24-1.98-4.33-4.8-7.44-8.48-9.32ZM450.24,731.23c1.51-1.88,2.64-4.38,3.39-7.49.75-3.11,1.13-6.83,1.13-11.16v-65.84c0-6.22-.99-11.4-2.97-15.54-1.98-4.14-4.99-7.21-9.04-9.18-4.05-1.98-9.09-2.97-15.12-2.97h-36.45v171.77c1.67,1.37,3.34,2.76,5.02,4.12,6.45,2.76,12.98,5.5,19.56,8.23v-63.46h5.93l9.96,69.97c1.25.51,2.49,1.01,3.75,1.52h20.77l-11.59-75.17c2.26-1.32,4.14-2.92,5.65-4.8ZM430.46,708.34c0,2.26-.24,4-.71,5.23-.47,1.23-1.27,2.08-2.4,2.54-1.13.47-2.54.71-4.24.71h-7.35v-74.88h7.35c1.7,0,3.11.24,4.24.71,1.13.47,1.93,1.32,2.4,2.54.47,1.23.71,2.97.71,5.23v57.93ZM587.44,620.45c-3.67-1.88-8.43-2.83-14.27-2.83h-10.46c-5.84,0-10.65.94-14.41,2.83-3.77,1.88-6.64,4.99-8.62,9.32-1.98,4.34-2.97,10.08-2.97,17.24v136.2c0,7.16.99,12.91,2.97,17.24,1.98,4.34,4.85,7.44,8.62,9.33,3.77,1.88,8.57,2.82,14.41,2.82h10.74c5.65,0,10.36-.94,14.13-2.82,3.77-1.88,6.59-4.99,8.48-9.33,1.88-4.33,2.83-10.08,2.83-17.24v-38.15h-23.17v37.02c0,1.89-.24,3.39-.71,4.52-.47,1.13-1.13,1.93-1.98,2.4-.85.47-2.03.71-3.53.71h-1.98c-1.7,0-2.92-.23-3.67-.71-.76-.47-1.37-1.27-1.84-2.4-.47-1.13-.71-2.64-.71-4.52v-133.94c0-1.88.23-3.39.71-4.52.47-1.13,1.08-1.93,1.84-2.4.75-.47,1.98-.71,3.67-.71h1.98c1.51,0,2.68.24,3.53.71.85.47,1.51,1.27,1.98,2.4.47,1.13.71,2.64.71,4.52v37.02h23.17v-38.15c0-7.16-.99-12.9-2.97-17.24-1.98-4.33-4.8-7.44-8.48-9.32ZM462.39,641.93h20.63v169.27h24.58v-169.27h20.91v-22.89h-66.12v22.89ZM649.46,782.09c0,1.89-.24,3.39-.71,4.52-.47,1.13-1.18,1.93-2.12,2.4-.95.47-2.08.71-3.39.71h-2.54c-1.32,0-2.45-.23-3.39-.71-.94-.47-1.65-1.27-2.12-2.4-.47-1.13-.71-2.64-.71-4.52v-163.05h-24.58v165.87c0,6.6.94,11.92,2.83,15.97,1.88,4.05,4.71,7.02,8.48,8.9,3.77,1.88,8.76,2.82,14.98,2.82h12.15c5.65,0,10.36-.94,14.13-2.82,3.77-1.88,6.64-4.85,8.62-8.9,1.98-4.05,2.97-9.37,2.97-15.97v-165.87h-24.58v163.05ZM748.93,811.2h22.32v-35.6h-22.32v35.6ZM763.44,552.58v-80.42h-16.93v95.94h59.68v-15.52h-42.75ZM718.23,540.02l2.75,28.08h17.07l-10.02-95.94h-54.18l-10.02,95.94h17.07l2.75-28.08h34.57ZM688.8,487.54h24.28l3.64,37.11h-31.55l3.64-37.11ZM749.78,619.04h-66.12v22.89h20.63v169.27h24.58v-169.27h20.91v-22.89ZM346.82,789.72h-2.54c-1.51,0-2.73-.23-3.67-.71-.94-.47-1.65-1.27-2.12-2.4-.28-.66-.46-1.46-.57-2.37-8.36-3.88-16.6-7.78-24.72-11.71v10.69c0,7.16.99,12.91,2.97,17.24,1.98,4.34,4.8,7.44,8.48,9.33,3.67,1.88,8.43,2.82,14.27,2.82h13.28c5.84,0,10.6-.94,14.27-2.82,3.56-1.82,6.32-4.81,8.29-8.94-8.62-3.77-17.13-7.57-25.51-11.39-.71.17-1.5.27-2.42.27ZM157.36,538.55c2.13,3.02,4.28,6.04,6.44,9.04v-23.81h5.48v-5.99h-17.31v5.99h5.4v14.77ZM207.08,562.1h-7.47v-16.28h6.36v-5.84h-6.36v-16.2h7.47v-5.99h-13.91v50.31h13.91v-5.99ZM185.1,702.3c-.62-.26-1.14-.58-1.57-.99-5.6-3.52-11.11-7.05-16.53-10.6-3.3-2.16-6.55-4.33-9.79-6.51v13.68c0,6.78.85,12.2,2.54,16.25,1.7,4.05,4.52,6.97,8.48,8.76,3.96,1.79,9.14,2.68,15.54,2.68h5.09c1.88,0,3.34.28,4.38.85,1.03.57,1.84,1.46,2.4,2.69.57,1.23.85,2.87.85,4.94v48.6c0,2.64-.47,4.48-1.41,5.51-.95,1.04-2.54,1.55-4.8,1.55h-2.54c-1.51,0-2.68-.23-3.53-.71-.85-.47-1.51-1.22-1.98-2.26-.47-1.03-.71-2.4-.71-4.1v-38.43h-23.74v39c0,7.35.94,13.14,2.83,17.38,1.88,4.24,4.71,7.3,8.48,9.18,3.77,1.88,8.66,2.82,14.69,2.82h11.59c5.84,0,10.6-.94,14.27-2.82,3.67-1.88,6.5-4.99,8.48-9.33,1.98-4.33,2.97-10.08,2.97-17.24v-52.56c0-2.5-.12-4.82-.37-6.95-12.24-7.07-24.11-14.21-35.61-21.41ZM178.59,545.6h4.29v22.49h6.44v-50.31h-6.44v21.75h-4.29v-21.75h-6.44v41.32c2.14,2.91,4.28,5.8,6.44,8.69v-22.19ZM234.36,811.2h24.58v-66.25c-8.34-4.46-16.54-8.95-24.58-13.46v79.71ZM391.19,811.2h3c-1-.8-2-1.6-3-2.4v2.4ZM275.33,811.2h24.58v-45.17c-8.33-4.12-16.52-8.27-24.58-12.45v57.62ZM337.78,763.24c-8.29-7.48-16.49-15.06-24.58-22.76v16.55c8.07,3.95,16.26,7.87,24.58,11.77v-5.56ZM219.94,684.03v-37.02c0-1.86-.07-3.62-.2-5.29-6.66-7.82-13.24-15.72-19.73-23.72-1.8-.25-3.73-.38-5.78-.38h-11.3c-5.84,0-10.6.94-14.27,2.83-3.67,1.88-6.5,4.99-8.48,9.32-1.98,4.34-2.97,10.08-2.97,17.24v20.32c5.7,3.92,11.5,7.82,17.43,11.7,2.27,1.49,4.57,2.97,6.87,4.45v-35.33c0-1.88.23-3.39.71-4.52.47-1.13,1.17-1.93,2.12-2.4.94-.47,2.07-.71,3.39-.71h2.26c2.26,0,3.86.61,4.8,1.84.94,1.23,1.41,3.06,1.41,5.51v36.17h23.74ZM274.52,702.12h-15.58v-16.41c-8.31-8.91-16.51-17.95-24.58-27.12v56.87c8.04,4.58,16.23,9.13,24.58,13.65v-3.82h16.39v12.55c8.06,4.23,16.25,8.43,24.58,12.6v-22.76c-8.58-8.39-17.04-16.92-25.39-25.56ZM157.36,562.52v5.58h4.09c-1.37-1.86-2.73-3.71-4.09-5.58ZM285.44,472.16h-17.07l-7.56,80.56h-24.79l-7.58-80.56h-17.07l10.02,95.94h54.04l10.02-95.94ZM275.33,682.79c8.08,8.54,16.28,16.96,24.58,25.27v-89.02h-24.58v63.75ZM358.66,552.72h-47.83v-25.25h39.22v-14.81h-39.22v-25.11h47.83v-15.38h-64.76v95.94h64.76v-15.38ZM258.94,665.13v-46.09h-24.58v18.31c8.07,9.39,16.27,18.65,24.58,27.78Z" style="fill:#004a63;"/><polygon points="141.1 651.47 130.42 647.19 127.48 654.52 141.1 651.47" style="fill:#004a63;"/><polygon points="147.27 666.78 136.59 662.5 131.71 674.68 147.27 666.78" style="fill:#004a63;"/><polygon points="113.87 653.38 110.74 648.22 107.21 650.37 113.87 653.38" style="fill:#004a63;"/><polygon points="114.18 664.41 115.26 669.4 122.55 667.82 114.18 664.41" style="fill:#004a63;"/><polygon points="210.5 587.36 199.81 583.08 196.88 590.41 210.5 587.36" style="fill:#004a63;"/><polygon points="223.87 607.23 210.29 601.8 207.55 608.65 223.87 607.23" style="fill:#004a63;"/><polygon points="167.97 595.29 169.05 600.29 176.34 598.71 167.97 595.29" style="fill:#004a63;"/><polygon points="148.12 538.15 142.71 535.98 141.23 539.69 148.12 538.15" style="fill:#004a63;"/><polygon points="151.24 545.9 145.83 543.73 143.37 549.9 151.24 545.9" style="fill:#004a63;"/><polygon points="134.34 539.12 132.75 536.51 130.96 537.59 134.34 539.12" style="fill:#004a63;"/><polygon points="134.49 544.7 135.04 547.23 138.73 546.43 134.49 544.7" style="fill:#004a63;"/></g></svg>