<?xml version="1.0" encoding="UTF-8"?><svg id="a" xmlns="http://www.w3.org/2000/svg" viewBox="0 0 1920 1080"><path d="M974.84,845.77c3.89-1.77,7.23-5.08,9.08-10.1.53-16.73.71-20.81.72-37.59-2.11.67-4.22,1.13-6.35,1.36v3.72c-.01,16.78-.19,20.86-.72,37.59-.71,1.92-1.64,3.6-2.73,5.02Z" style="fill:#69a1bc;"/><path d="M931.6,740.2v33.55c1.21-.79,2.27-.39,3.19,1.57,1.04,2.24,2.08,4.36,3.16,6.36v-45.66c-2.83-.18-5.87,1.28-6.35,4.17Z" style="fill:#74acd4;"/><path d="M926.63,1066.38c5.78-2.91,10.3-8.71,11.32-17.49v-267.19c-1.08-2.01-2.12-4.13-3.16-6.36-.91-1.97-1.98-2.36-3.19-1.57v280.22c-.6,5.16-2.4,9.3-4.97,12.41Z" style="fill:#74acd4;"/><path d="M815.98,845.59c4.98-2.29,8.94-6.94,9.91-13.97v-56.58c-2.13,2.95-4.26,5.64-6.35,8.08v53.58c-.5,3.58-1.77,6.54-3.56,8.89Z" style="fill:#69a1bc;"/><path d="M868.59,1066.05c5.25-2.79,9.6-7.84,11.51-15.14l.08-166.54c.13-1.35.27-2.79.58-4.13-.58.01-1.18.08-1.8.22-4.42.94-4.76,5.3-5.13,8.99l-.08,166.54c-1.05,4.05-2.87,7.41-5.16,10.06Z" style="fill:#74acd4;"/><path d="M789.95,722.71v108.45c1.75,14.16,15.96,19.12,26.03,14.43,1.79-2.35,3.06-5.31,3.56-8.89v-96.5c.5-3,3.52-4.38,6.35-4.13v-.95c.9-5.41,10.01-5.58,11.43-.34v25.53s.08,287.72.08,287.72c1.56,18.6,18.83,24.59,31.19,18.01,2.29-2.65,4.1-6.01,5.16-10.06l.08-166.54c.37-3.7.71-8.05,5.13-8.99.62-.14,1.22-.2,1.8-.22.58-2.3,1.75-4.27,4.55-4.87,5.61-1.19,9.73,2.6,9.87,8.14l.03,166.61c3.52,16.44,19.94,22.07,31.43,16.26,2.57-3.11,4.37-7.25,4.97-12.41v-313.77c.48-2.88,3.52-4.34,6.35-4.17v-.91c.89-5.36,10.61-5.78,11.51.01v93.92c-.29,14.8,14.65,21.6,25.38,16.72,1.09-1.42,2.02-3.1,2.73-5.02.53-16.73.71-20.81.72-37.59v-3.72c.01-28.42-.36-44.16-.08-72.54-2.55-24.95-25.7-44.14-50.26-45.54-31.62-1.82-65.33,1.04-97.11.44-9.07,1.07-17.42,4.43-24.73,9.53h-.01c-.2.18-.41.37-.6.55-8.33,7.8-14.76,19.25-15.56,30.83Z" style="fill:#fff;"/><path d="M806.12,691.33c7.32-5.09,15.66-8.46,24.73-9.53,31.77.6,65.49-2.26,97.11-.44,24.56,1.4,47.7,20.59,50.26,45.54-.28,28.38.09,44.12.08,72.54,2.13-.23,4.24-.69,6.35-1.36.05-29.65-.37-46.63-.08-76.26-2.55-24.95-25.7-44.14-50.26-45.54-31.62-1.82-65.33,1.04-97.11.44-11.81,1.38-22.4,6.68-31.09,14.61Z" style="fill:#74acd4;"/><path d="M819.54,740.2v42.91c2.1-2.44,4.22-5.13,6.35-8.08v-38.96c-2.83-.25-5.86,1.13-6.35,4.13Z" style="fill:#74acd4;"/><path d="M789.95,722.71v108.45c1.75,14.16,15.96,19.12,26.03,14.43,1.79-2.35,3.06-5.31,3.56-8.89v-96.5c.5-3,3.52-4.38,6.35-4.13v-.95c.9-5.41,10.01-5.58,11.43-.34v25.53s.08,287.72.08,287.72c1.56,18.6,18.83,24.59,31.19,18.01,2.29-2.65,4.1-6.01,5.16-10.06l.08-166.54c.37-3.7.71-8.05,5.13-8.99.62-.14,1.22-.2,1.8-.22.58-2.3,1.75-4.27,4.55-4.87,5.61-1.19,9.73,2.6,9.87,8.14l.03,166.61c3.52,16.44,19.94,22.07,31.43,16.26,2.57-3.11,4.37-7.25,4.97-12.41v-313.77c.48-2.88,3.52-4.34,6.35-4.17v-.91c.89-5.36,10.61-5.78,11.51.01v93.92c-.29,14.8,14.65,21.6,25.38,16.72,1.09-1.42,2.02-3.1,2.73-5.02.53-16.73.71-20.81.72-37.59v-3.72c.01-28.42-.36-44.16-.08-72.54-2.55-24.95-25.7-44.14-50.26-45.54-31.62-1.82-65.33,1.04-97.11.44-9.07,1.07-17.42,4.43-24.73,9.53h-.01c-.2.18-.41.37-.6.55-8.33,7.8-14.76,19.25-15.56,30.83Z" style="fill:#155983;"/><path d="M789.95,722.71v80.63c9.08-1.6,18.99-7.83,29.59-20.22v-42.91c.5-3,3.52-4.38,6.35-4.13v-.95c.9-5.41,10.01-5.58,11.43-.34v25.53c22.45-18.46,40.82,74.8,56.66,75.54,15.4.71,29.59-56.85,37.62-62.09v-33.55c.48-2.88,3.52-4.34,6.35-4.17v-.91c.89-5.36,10.61-5.78,11.51.01v63.7c9.34,10.54,19.18,1.64,28.84.61.01-28.42-.36-44.16-.08-72.54-2.55-24.95-25.7-44.14-50.26-45.54-31.62-1.82-65.33,1.04-97.11.44-9.07,1.07-17.42,4.43-24.73,9.53h-.01c-.2.18-.41.37-.6.55-8.33,7.8-14.76,19.25-15.56,30.83Z" style="fill:#1f6188;"/><path d="M911.2,657.23c9.92-7.56,16.32-19.5,16.32-32.94,0-.97-.04-1.93-.11-2.88-.09-1.45-.27-2.88-.51-4.28-1.26.99-2.57,1.93-3.9,2.83.04.14.06.29.09.44.41,2.3.62,4.67.62,7.09v.08c0,11.64-4.79,22.14-12.51,29.66Z" style="fill:#74acd4;"/><path d="M844.72,624.29c0,16.78,9.97,31.23,24.33,37.73,5.21,2.35,10.99,3.67,17.07,3.67,9.43,0,18.12-3.15,25.08-8.46,7.72-7.52,12.51-18.03,12.51-29.66v-.08c0-2.41-.22-4.79-.62-7.09-.03-.15-.05-.3-.09-.44-3.57-19.23-20.43-33.78-40.69-33.78-9.41,0-18.08,3.14-25.03,8.42-5.73,5.55-9.86,12.77-11.62,20.86-.61,2.85-.94,5.79-.94,8.83Z" style="fill:#fff;"/><path d="M844.72,624.29c0,16.78,9.97,31.23,24.33,37.73,22.74-3.34,42.37-16.26,54.66-34.53,1.32-1.96,2.55-3.99,3.7-6.08-.09-1.45-.27-2.88-.51-4.28-3.39-19.45-20.36-34.22-40.78-34.22-11.22,0-21.38,4.46-28.84,11.7-5.73,5.55-9.86,12.77-11.62,20.86-.61,2.85-.94,5.79-.94,8.83Z" style="fill:#74acd4;"/><path d="M844.72,624.29c0,16.78,9.97,31.23,24.33,37.73,5.21,2.35,10.99,3.67,17.07,3.67,9.43,0,18.12-3.15,25.08-8.46,7.72-7.52,12.51-18.03,12.51-29.66v-.08c0-2.41-.22-4.79-.62-7.09-.03-.15-.05-.3-.09-.44-3.57-19.23-20.43-33.78-40.69-33.78-9.41,0-18.08,3.14-25.03,8.42-5.73,5.55-9.86,12.77-11.62,20.86-.61,2.85-.94,5.79-.94,8.83Z" style="fill:#155983;"/><path d="M857.29,594.6c6.95-5.28,15.61-8.42,25.03-8.42,20.26,0,37.12,14.55,40.69,33.78,1.33-.9,2.64-1.84,3.9-2.83-3.39-19.45-20.36-34.22-40.78-34.22-11.22,0-21.38,4.46-28.84,11.7Z" style="fill:#74acd4;"/></svg>