<?xml version="1.0" encoding="UTF-8"?>
<svg id="uuid-6e130bdb-efc6-4bea-98d0-358d9d6e9117" data-name="Layer 2" xmlns="http://www.w3.org/2000/svg" width="142.75" height="141.43" xmlns:xlink="http://www.w3.org/1999/xlink" viewBox="0 0 142.75 141.43">
  <defs>
    <style>
      .uuid-b35afa48-cbbf-4c76-90fd-20c474043b46 {
        fill: url(#uuid-ba86eb02-fa7e-40db-8ab4-e6d1ca81b095);
      }
    </style>
    <radialGradient id="uuid-ba86eb02-fa7e-40db-8ab4-e6d1ca81b095" cx="107.45" cy="16.97" fx="107.45" fy="16.97" r="135.51" gradientUnits="userSpaceOnUse">
      <stop offset=".02" stop-color="#fad74b"/>
      <stop offset=".17" stop-color="#f3d14a"/>
      <stop offset=".38" stop-color="#e2c04a"/>
      <stop offset=".61" stop-color="#c6a54a"/>
      <stop offset=".63" stop-color="#c4a34a"/>
      <stop offset=".75" stop-color="#b29343"/>
      <stop offset=".98" stop-color="#896d35"/>
    </radialGradient>
  </defs>
  <g id="uuid-2c710436-76e8-4465-818d-e16dded8b220" data-name="Layer 1">
    <path class="uuid-b35afa48-cbbf-4c76-90fd-20c474043b46" d="M74.31,9.89l11.67-8.62c3.46-2.56,8.41-1.11,9.94,2.92l5.15,13.56c.77,2.03,2.78,3.32,4.94,3.18l14.47-.94c4.29-.28,7.67,3.62,6.78,7.83l-2.99,14.19c-.45,2.12.54,4.29,2.44,5.35l12.69,7.03c3.76,2.09,4.5,7.19,1.47,10.25l-10.19,10.32c-1.53,1.54-1.86,3.9-.84,5.82l6.87,12.77c2.04,3.79-.1,8.48-4.3,9.42l-14.15,3.17c-2.12.47-3.68,2.28-3.85,4.44l-1.13,14.46c-.33,4.29-4.67,7.08-8.71,5.6l-13.62-4.98c-2.04-.75-4.33-.07-5.64,1.66l-8.76,11.56c-2.6,3.43-7.76,3.43-10.36,0l-8.76-11.56c-1.31-1.73-3.6-2.4-5.64-1.66l-13.62,4.98c-4.04,1.48-8.38-1.31-8.71-5.6l-1.13-14.46c-.17-2.16-1.73-3.97-3.85-4.44l-14.15-3.17c-4.2-.94-6.34-5.63-4.3-9.42l6.87-12.77c1.03-1.91.69-4.27-.84-5.82l-10.19-10.32c-3.02-3.06-2.29-8.17,1.47-10.25l12.69-7.03c1.9-1.05,2.89-3.22,2.44-5.35l-2.99-14.19c-.89-4.21,2.49-8.11,6.78-7.83l14.47.94c2.17.14,4.17-1.15,4.94-3.18l5.15-13.56c1.53-4.02,6.48-5.48,9.94-2.92l11.67,8.62c1.75,1.29,4.13,1.29,5.88,0Z"/>
  </g>
</svg>