<?xml version="1.0" encoding="UTF-8"?>
<svg id="uuid-626d6f15-2294-422b-8d80-2dadf3ce2a69" data-name="Layer 2" xmlns="http://www.w3.org/2000/svg" width="241.21" height="241.21" xmlns:xlink="http://www.w3.org/1999/xlink" viewBox="0 0 241.21 241.21">
  <defs>
    <style>
      .uuid-5f2da7d2-5728-4db8-aa21-5dde32f47fae {
        fill: url(#uuid-4b7f748f-54b4-4a89-96df-ea2a2ff3e070);
      }
    </style>
    <radialGradient id="uuid-4b7f748f-54b4-4a89-96df-ea2a2ff3e070" cx="-440.5" cy="685.78" fx="-440.5" fy="685.78" r="218.45" gradientTransform="translate(638.2 -638.2)" gradientUnits="userSpaceOnUse">
      <stop offset=".02" stop-color="#ffe87e"/>
      <stop offset=".07" stop-color="#fae074"/>
      <stop offset=".32" stop-color="#e6bf47"/>
      <stop offset=".52" stop-color="#daab2b"/>
      <stop offset=".63" stop-color="#d6a421"/>
      <stop offset=".76" stop-color="#c99217"/>
      <stop offset=".99" stop-color="#ad6b00"/>
    </radialGradient>
  </defs>
  <g id="uuid-7596c7cd-0c66-4193-aa6e-157e29f8da4a" data-name="Layer 1">
    <path class="uuid-5f2da7d2-5728-4db8-aa21-5dde32f47fae" d="M224.61,118.11c10.82-2.55,17.6-13.32,15.16-24.19h0c-2.43-10.87-13.16-17.73-24.03-15.42,9.02-6.49,11.16-19.04,4.75-28.15h0c-6.41-9.11-18.94-11.34-28.1-5.05,5.85-9.45,3.02-21.86-6.39-27.83-9.41-5.96-21.84-3.23-27.89,6.09,1.79-10.97-5.58-21.35-16.55-23.26-10.97-1.91-21.41,5.38-23.44,16.3-2.55-10.82-13.32-17.6-24.19-15.16h0c-10.87,2.43-17.73,13.16-15.42,24.03-6.49-9.02-19.04-11.16-28.15-4.75h0c-9.11,6.41-11.34,18.94-5.05,28.1-9.45-5.85-21.86-3.02-27.83,6.39h0c-5.96,9.41-3.23,21.84,6.09,27.89-10.97-1.79-21.35,5.58-23.27,16.55h0c-1.91,10.97,5.38,21.41,16.3,23.44-10.81,2.55-17.59,13.32-15.16,24.19,2.43,10.87,13.16,17.73,24.03,15.42-9.02,6.49-11.16,19.04-4.75,28.15,6.41,9.11,18.94,11.34,28.1,5.05-5.85,9.45-3.02,21.86,6.39,27.83,9.41,5.96,21.84,3.23,27.89-6.09-1.79,10.97,5.58,21.36,16.55,23.27,10.97,1.91,21.41-5.38,23.44-16.3,2.55,10.81,13.32,17.59,24.19,15.16h0c10.87-2.43,17.73-13.16,15.42-24.03,6.49,9.02,19.04,11.16,28.15,4.75h0c9.11-6.41,11.34-18.94,5.05-28.1,9.45,5.85,21.86,3.02,27.83-6.39h0c5.96-9.41,3.23-21.84-6.09-27.89,10.97,1.79,21.35-5.58,23.27-16.55h0c1.91-10.97-5.38-21.41-16.3-23.44ZM121.5,157.96l-4.69-15.56-9.67,13.06,1.62-16.17-13.93,8.37,7.69-14.32-16.08,2.4,12.58-10.29-15.77-3.94,15.56-4.69-13.06-9.67,16.17,1.62-8.37-13.93,14.32,7.69-2.4-16.08,10.29,12.58,3.94-15.77,4.69,15.56,9.67-13.06-1.62,16.17,13.93-8.37-7.69,14.32,16.08-2.4-12.58,10.29,15.77,3.94-15.56,4.69,13.06,9.67-16.17-1.62,8.37,13.93-14.32-7.69,2.4,16.08-10.29-12.58-3.94,15.77Z"/>
  </g>
</svg>