<?xml version="1.0" encoding="UTF-8"?>
<svg id="uuid-e3231208-81dd-49d4-a591-ca4bb871e3c2" data-name="Layer 2" xmlns="http://www.w3.org/2000/svg" width="239.48" height="239.48" xmlns:xlink="http://www.w3.org/1999/xlink" viewBox="0 0 239.48 239.48">
  <defs>
    <style>
      .uuid-ce8d46b3-0a2c-48ee-aaf7-a9e9e2892b17 {
        fill: url(#uuid-f3afed6f-a5aa-4e27-9fb0-d6a3d3b8f213);
      }
    </style>
    <radialGradient id="uuid-f3afed6f-a5aa-4e27-9fb0-d6a3d3b8f213" cx="143.03" cy="65.96" fx="143.03" fy="65.96" r="229.3" gradientTransform="translate(37.22 -37.22)" gradientUnits="userSpaceOnUse">
      <stop offset=".02" stop-color="#c4ff7e"/>
      <stop offset=".1" stop-color="#bdfc7a"/>
      <stop offset=".21" stop-color="#acf471"/>
      <stop offset=".34" stop-color="#90e761"/>
      <stop offset=".48" stop-color="#68d54b"/>
      <stop offset=".63" stop-color="#38bf31"/>
      <stop offset=".73" stop-color="#38ad39"/>
      <stop offset=".92" stop-color="#3a814d"/>
      <stop offset=".98" stop-color="#3b7355"/>
    </radialGradient>
  </defs>
  <g id="uuid-49caa086-1d1c-4ee8-a0f4-14ef2a44c1ee" data-name="Layer 1">
    <path class="uuid-ce8d46b3-0a2c-48ee-aaf7-a9e9e2892b17" d="M181.43,58.05C179.48,25.66,152.61,0,119.74,0h0c-32.87,0-59.74,25.66-61.69,58.05C25.66,60,0,86.86,0,119.74h0c0,32.87,25.66,59.74,58.05,61.69,1.95,32.38,28.82,58.05,61.69,58.05h0c32.87,0,59.74-25.66,61.69-58.05,32.38-1.95,58.05-28.82,58.05-61.69h0c0-32.87-25.66-59.74-58.05-61.69ZM178.63,119.74c0,3.71-2.65,6.88-6.3,7.54l-32.92,5.95c-3.15.57-5.61,3.03-6.18,6.18l-5.95,32.92c-.66,3.65-3.83,6.3-7.54,6.3s-6.88-2.65-7.54-6.3l-5.95-32.92c-.57-3.15-3.03-5.61-6.18-6.18l-32.92-5.95c-3.65-.66-6.3-3.83-6.3-7.54h0c0-3.71,2.65-6.88,6.3-7.54l32.92-5.95c3.15-.57,5.61-3.03,6.18-6.18l5.95-32.92c.66-3.65,3.83-6.3,7.54-6.3s6.88,2.65,7.54,6.3l5.95,32.92c.57,3.15,3.03,5.61,6.18,6.18l32.92,5.95c3.65.66,6.3,3.83,6.3,7.54h0Z"/>
  </g>
</svg>