<?xml version="1.0" encoding="UTF-8"?><svg id="a" xmlns="http://www.w3.org/2000/svg" xmlns:xlink="http://www.w3.org/1999/xlink" viewBox="0 0 227.04 225.6"><defs><filter id="b" x="0" y="0" width="227.04" height="225.6" filterUnits="userSpaceOnUse"><feOffset dx="-6" dy="6"/><feGaussianBlur result="c" stdDeviation="14"/><feFlood flood-color="#332318" flood-opacity=".3"/><feComposite in2="c" operator="in"/><feComposite in="SourceGraphic"/></filter><radialGradient id="d" cx="155.57" cy="53" fx="155.57" fy="53" r="135.51" gradientUnits="userSpaceOnUse"><stop offset=".02" stop-color="#ff830c"/><stop offset=".25" stop-color="#f87d0f"/><stop offset=".58" stop-color="#e76d19"/><stop offset=".63" stop-color="#e46a1c"/><stop offset=".85" stop-color="#d35a1a"/><stop offset=".98" stop-color="#c74f1a"/></radialGradient></defs><g style="filter:url(#b);"><path d="M122.43,45.92l11.67-8.62c3.46-2.56,8.41-1.11,9.94,2.92l5.15,13.56c.77,2.03,2.78,3.32,4.94,3.18l14.47-.94c4.29-.28,7.67,3.62,6.78,7.83l-2.99,14.19c-.45,2.12.54,4.29,2.44,5.35l12.69,7.03c3.76,2.09,4.5,7.19,1.47,10.25l-10.19,10.32c-1.53,1.54-1.86,3.9-.84,5.82l6.87,12.77c2.04,3.79-.1,8.48-4.3,9.42l-14.15,3.17c-2.12.47-3.68,2.28-3.85,4.44l-1.13,14.46c-.33,4.29-4.67,7.08-8.71,5.6l-13.62-4.98c-2.04-.75-4.33-.07-5.64,1.66l-8.76,11.56c-2.6,3.43-7.76,3.43-10.36,0l-8.76-11.56c-1.31-1.73-3.6-2.4-5.64-1.66l-13.62,4.98c-4.04,1.48-8.38-1.31-8.71-5.6l-1.13-14.46c-.17-2.16-1.73-3.97-3.85-4.44l-14.15-3.17c-4.2-.94-6.34-5.63-4.3-9.42l6.87-12.77c1.03-1.91.69-4.27-.84-5.82l-10.19-10.32c-3.02-3.06-2.29-8.17,1.47-10.25l12.69-7.03c1.9-1.05,2.89-3.22,2.44-5.35l-2.99-14.19c-.89-4.21,2.49-8.11,6.78-7.83l14.47.94c2.17.14,4.17-1.15,4.94-3.18l5.15-13.56c1.53-4.02,6.48-5.48,9.94-2.92l11.67,8.62c1.75,1.29,4.13,1.29,5.88,0Z" style="fill:url(#d);"/></g></svg>