<?xml version="1.0" encoding="UTF-8"?>
<svg id="uuid-17d0514f-f0d1-45a6-a68c-4896ba7633c8" data-name="Layer 2" xmlns="http://www.w3.org/2000/svg" width="57.85" height="56.06" xmlns:xlink="http://www.w3.org/1999/xlink" viewBox="0 0 57.85 56.06">
  <defs>
    <style>
      .uuid-4308c7dd-0931-42a1-9f46-f06784a1b02c {
        fill: url(#uuid-13060901-fdd3-46cd-b0e1-aba66702cebb);
      }
    </style>
    <radialGradient id="uuid-13060901-fdd3-46cd-b0e1-aba66702cebb" cx="-1638.24" cy="45.05" fx="-1638.24" fy="45.05" r="82.08" gradientTransform="translate(876.34 -657.2) rotate(-36.46) scale(.66)" gradientUnits="userSpaceOnUse">
      <stop offset=".02" stop-color="#f9d64b"/>
      <stop offset=".17" stop-color="#f2cf4a"/>
      <stop offset=".38" stop-color="#e1bf4a"/>
      <stop offset=".62" stop-color="#c5a349"/>
      <stop offset=".63" stop-color="#c4a249"/>
      <stop offset=".75" stop-color="#b29243"/>
      <stop offset=".98" stop-color="#886d35"/>
    </radialGradient>
  </defs>
  <g id="uuid-9e2b3bd3-6987-4d8f-9def-abc2ac5e23d7" data-name="Layer 1">
    <path class="uuid-4308c7dd-0931-42a1-9f46-f06784a1b02c" d="M40.91,16.63l-2.49.74.07-2.6S38.85.24,29.51,0c-9.35-.23-9.71,14.3-9.71,14.3l-.07,2.6-2.45-.86S3.57,11.2.46,20.01c-3.11,8.82,10.6,13.65,10.6,13.65l2.45.86-1.58,2.06s-8.84,11.55-1.42,17.23c7.42,5.68,16.26-5.86,16.26-5.86l1.58-2.06,1.47,2.14s8.25,11.98,15.95,6.67c7.7-5.3-.55-17.28-.55-17.28l-1.47-2.14,2.49-.74s13.94-4.14,11.27-13.1-16.6-4.82-16.6-4.82Z"/>
  </g>
</svg>