<?xml version="1.0" encoding="UTF-8"?>
<svg id="a" data-name="uuid-0335139e-d29a-46bd-823e-eb05e57cfef2" xmlns="http://www.w3.org/2000/svg" xmlns:xlink="http://www.w3.org/1999/xlink" viewBox="0 0 1921 1081">
  <defs>
    <linearGradient id="b" x1="0" y1="669.7" x2="1921" y2="669.7" gradientTransform="translate(0 1210.2) scale(1 -1)" gradientUnits="userSpaceOnUse">
      <stop offset="0" stop-color="#02a190"/>
      <stop offset=".2" stop-color="#279c76"/>
      <stop offset=".3" stop-color="#539657"/>
      <stop offset=".4" stop-color="#65944c"/>
      <stop offset=".5" stop-color="#7f9a4a"/>
      <stop offset=".7" stop-color="#a6a448"/>
      <stop offset=".8" stop-color="#c2ab47"/>
      <stop offset=".9" stop-color="#d3af46"/>
      <stop offset="1" stop-color="#dab146"/>
    </linearGradient>
    <clipPath id="c">
      <rect x=".5" y=".5" width="1920" height="1080" style="fill: none;"/>
    </clipPath>
    <radialGradient id="d" cx="958.2" cy="1571.8" fx="965.8" fy="2392" r="1110.2" gradientTransform="translate(1.3 1243) rotate(.2) scale(1 -.4)" gradientUnits="userSpaceOnUse">
      <stop offset="0" stop-color="#192838" stop-opacity=".8"/>
      <stop offset=".3" stop-color="#101924" stop-opacity=".9"/>
      <stop offset=".3" stop-color="#0c121b" stop-opacity=".9"/>
      <stop offset=".6" stop-color="#030407" stop-opacity="1"/>
      <stop offset=".8" stop-color="#000" stop-opacity="1"/>
      <stop offset="1" stop-color="#000"/>
    </radialGradient>
    <linearGradient id="e" x1="0" y1="669.7" x2="1921" y2="669.7" gradientTransform="translate(0 1210.2) scale(1 -1)" gradientUnits="userSpaceOnUse">
      <stop offset="0" stop-color="#02a190"/>
      <stop offset=".2" stop-color="#279c76"/>
      <stop offset=".3" stop-color="#539657"/>
      <stop offset=".4" stop-color="#65944c"/>
      <stop offset=".5" stop-color="#7f9a4a"/>
      <stop offset=".7" stop-color="#a6a448"/>
      <stop offset=".8" stop-color="#c2ab47"/>
      <stop offset=".9" stop-color="#d3af46"/>
      <stop offset="1" stop-color="#dab146"/>
    </linearGradient>
  </defs>
  <rect x=".5" y=".5" width="1920" height="1080" style="stroke: url(#b); stroke-miterlimit: 10;"/>
  <g style="clip-path: url(#c);">
    <g>
      <g style="opacity: .4;">
        <g style="opacity: .7;">
          <line x1="899.1" y1="2110.8" x2="2510.2" y2="499.7" style="fill: none; stroke: #686868; stroke-miterlimit: 10; stroke-width: 1.5px;"/>
          <line x1="791.7" y1="2003.4" x2="2402.8" y2="392.3" style="fill: none; stroke: #686868; stroke-miterlimit: 10; stroke-width: 1.5px;"/>
          <line x1="684.3" y1="1896" x2="2295.4" y2="284.9" style="fill: none; stroke: #686868; stroke-miterlimit: 10; stroke-width: 1.5px;"/>
          <line x1="576.9" y1="1788.6" x2="2188" y2="177.5" style="fill: none; stroke: #686868; stroke-miterlimit: 10; stroke-width: 1.5px;"/>
          <line x1="469.5" y1="1681.2" x2="2080.6" y2="70.1" style="fill: none; stroke: #686868; stroke-miterlimit: 10; stroke-width: 1.5px;"/>
          <line x1="362.1" y1="1573.8" x2="1973.2" y2="-37.3" style="fill: none; stroke: #686868; stroke-miterlimit: 10; stroke-width: 1.5px;"/>
          <line x1="254.7" y1="1466.4" x2="1865.8" y2="-144.8" style="fill: none; stroke: #686868; stroke-miterlimit: 10; stroke-width: 1.5px;"/>
          <line x1="147.2" y1="1359" x2="1758.4" y2="-252.2" style="fill: none; stroke: #686868; stroke-miterlimit: 10; stroke-width: 1.5px;"/>
          <line x1="39.8" y1="1251.5" x2="1651" y2="-359.6" style="fill: none; stroke: #686868; stroke-miterlimit: 10; stroke-width: 1.5px;"/>
          <line x1="-67.6" y1="1144.1" x2="1543.6" y2="-467" style="fill: none; stroke: #686868; stroke-miterlimit: 10; stroke-width: 1.5px;"/>
          <line x1="-175" y1="1036.7" x2="1436.2" y2="-574.4" style="fill: none; stroke: #686868; stroke-miterlimit: 10; stroke-width: 1.5px;"/>
          <line x1="-282.4" y1="929.3" x2="1328.7" y2="-681.8" style="fill: none; stroke: #686868; stroke-miterlimit: 10; stroke-width: 1.5px;"/>
          <line x1="-389.8" y1="821.9" x2="1221.3" y2="-789.2" style="fill: none; stroke: #686868; stroke-miterlimit: 10; stroke-width: 1.5px;"/>
          <line x1="-497.2" y1="714.5" x2="1113.9" y2="-896.6" style="fill: none; stroke: #686868; stroke-miterlimit: 10; stroke-width: 1.5px;"/>
          <line x1="899.1" y1="-896.6" x2="2510.2" y2="714.5" style="fill: none; stroke: #686868; stroke-miterlimit: 10; stroke-width: 1.5px;"/>
          <line x1="791.7" y1="-789.2" x2="2402.8" y2="821.9" style="fill: none; stroke: #686868; stroke-miterlimit: 10; stroke-width: 1.5px;"/>
          <line x1="684.3" y1="-681.8" x2="2295.4" y2="929.3" style="fill: none; stroke: #686868; stroke-miterlimit: 10; stroke-width: 1.5px;"/>
          <line x1="576.9" y1="-574.4" x2="2188" y2="1036.7" style="fill: none; stroke: #686868; stroke-miterlimit: 10; stroke-width: 1.5px;"/>
          <line x1="469.5" y1="-467" x2="2080.6" y2="1144.1" style="fill: none; stroke: #686868; stroke-miterlimit: 10; stroke-width: 1.5px;"/>
          <line x1="362.1" y1="-359.6" x2="1973.2" y2="1251.5" style="fill: none; stroke: #686868; stroke-miterlimit: 10; stroke-width: 1.5px;"/>
          <line x1="254.7" y1="-252.2" x2="1865.8" y2="1359" style="fill: none; stroke: #686868; stroke-miterlimit: 10; stroke-width: 1.5px;"/>
          <line x1="147.2" y1="-144.8" x2="1758.4" y2="1466.4" style="fill: none; stroke: #686868; stroke-miterlimit: 10; stroke-width: 1.5px;"/>
          <line x1="39.8" y1="-37.3" x2="1651" y2="1573.8" style="fill: none; stroke: #686868; stroke-miterlimit: 10; stroke-width: 1.5px;"/>
          <line x1="-67.6" y1="70.1" x2="1543.6" y2="1681.2" style="fill: none; stroke: #686868; stroke-miterlimit: 10; stroke-width: 1.5px;"/>
          <line x1="-175" y1="177.5" x2="1436.2" y2="1788.6" style="fill: none; stroke: #686868; stroke-miterlimit: 10; stroke-width: 1.5px;"/>
          <line x1="-282.4" y1="284.9" x2="1328.7" y2="1896" style="fill: none; stroke: #686868; stroke-miterlimit: 10; stroke-width: 1.5px;"/>
          <line x1="-389.8" y1="392.3" x2="1221.3" y2="2003.4" style="fill: none; stroke: #686868; stroke-miterlimit: 10; stroke-width: 1.5px;"/>
          <line x1="-497.2" y1="499.7" x2="1113.9" y2="2110.8" style="fill: none; stroke: #686868; stroke-miterlimit: 10; stroke-width: 1.5px;"/>
        </g>
        <g style="opacity: .7;">
          <line x1="793.1" y1="2110.8" x2="2404.2" y2="499.7" style="fill: none; stroke: #686868; stroke-miterlimit: 10; stroke-width: 1.5px;"/>
          <line x1="685.7" y1="2003.4" x2="2296.8" y2="392.3" style="fill: none; stroke: #686868; stroke-miterlimit: 10; stroke-width: 1.5px;"/>
          <line x1="578.3" y1="1896" x2="2189.4" y2="284.9" style="fill: none; stroke: #686868; stroke-miterlimit: 10; stroke-width: 1.5px;"/>
          <line x1="470.9" y1="1788.6" x2="2082" y2="177.5" style="fill: none; stroke: #686868; stroke-miterlimit: 10; stroke-width: 1.5px;"/>
          <line x1="363.5" y1="1681.2" x2="1974.6" y2="70.1" style="fill: none; stroke: #686868; stroke-miterlimit: 10; stroke-width: 1.5px;"/>
          <line x1="256.1" y1="1573.8" x2="1867.2" y2="-37.3" style="fill: none; stroke: #686868; stroke-miterlimit: 10; stroke-width: 1.5px;"/>
          <line x1="148.7" y1="1466.4" x2="1759.8" y2="-144.8" style="fill: none; stroke: #686868; stroke-miterlimit: 10; stroke-width: 1.5px;"/>
          <line x1="41.2" y1="1359" x2="1652.4" y2="-252.2" style="fill: none; stroke: #686868; stroke-miterlimit: 10; stroke-width: 1.5px;"/>
          <line x1="-66.2" y1="1251.5" x2="1545" y2="-359.6" style="fill: none; stroke: #686868; stroke-miterlimit: 10; stroke-width: 1.5px;"/>
          <line x1="-173.6" y1="1144.1" x2="1437.6" y2="-467" style="fill: none; stroke: #686868; stroke-miterlimit: 10; stroke-width: 1.5px;"/>
          <line x1="-281" y1="1036.7" x2="1330.2" y2="-574.4" style="fill: none; stroke: #686868; stroke-miterlimit: 10; stroke-width: 1.5px;"/>
          <line x1="-388.4" y1="929.3" x2="1222.7" y2="-681.8" style="fill: none; stroke: #686868; stroke-miterlimit: 10; stroke-width: 1.5px;"/>
          <line x1="-495.8" y1="821.9" x2="1115.3" y2="-789.2" style="fill: none; stroke: #686868; stroke-miterlimit: 10; stroke-width: 1.5px;"/>
          <line x1="-603.2" y1="714.5" x2="1007.9" y2="-896.6" style="fill: none; stroke: #686868; stroke-miterlimit: 10; stroke-width: 1.5px;"/>
          <line x1="793.1" y1="-896.6" x2="2404.2" y2="714.5" style="fill: none; stroke: #686868; stroke-miterlimit: 10; stroke-width: 1.5px;"/>
          <line x1="685.7" y1="-789.2" x2="2296.8" y2="821.9" style="fill: none; stroke: #686868; stroke-miterlimit: 10; stroke-width: 1.5px;"/>
          <line x1="578.3" y1="-681.8" x2="2189.4" y2="929.3" style="fill: none; stroke: #686868; stroke-miterlimit: 10; stroke-width: 1.5px;"/>
          <line x1="470.9" y1="-574.4" x2="2082" y2="1036.7" style="fill: none; stroke: #686868; stroke-miterlimit: 10; stroke-width: 1.5px;"/>
          <line x1="363.5" y1="-467" x2="1974.6" y2="1144.1" style="fill: none; stroke: #686868; stroke-miterlimit: 10; stroke-width: 1.5px;"/>
          <line x1="256.1" y1="-359.6" x2="1867.2" y2="1251.5" style="fill: none; stroke: #686868; stroke-miterlimit: 10; stroke-width: 1.5px;"/>
          <line x1="148.7" y1="-252.2" x2="1759.8" y2="1359" style="fill: none; stroke: #686868; stroke-miterlimit: 10; stroke-width: 1.5px;"/>
          <line x1="41.2" y1="-144.8" x2="1652.4" y2="1466.4" style="fill: none; stroke: #686868; stroke-miterlimit: 10; stroke-width: 1.5px;"/>
          <line x1="-66.2" y1="-37.3" x2="1545" y2="1573.8" style="fill: none; stroke: #686868; stroke-miterlimit: 10; stroke-width: 1.5px;"/>
          <line x1="-173.6" y1="70.1" x2="1437.6" y2="1681.2" style="fill: none; stroke: #686868; stroke-miterlimit: 10; stroke-width: 1.5px;"/>
          <line x1="-281" y1="177.5" x2="1330.2" y2="1788.6" style="fill: none; stroke: #686868; stroke-miterlimit: 10; stroke-width: 1.5px;"/>
          <line x1="-388.4" y1="284.9" x2="1222.7" y2="1896" style="fill: none; stroke: #686868; stroke-miterlimit: 10; stroke-width: 1.5px;"/>
          <line x1="-495.8" y1="392.3" x2="1115.3" y2="2003.4" style="fill: none; stroke: #686868; stroke-miterlimit: 10; stroke-width: 1.5px;"/>
          <line x1="-603.2" y1="499.7" x2="1007.9" y2="2110.8" style="fill: none; stroke: #686868; stroke-miterlimit: 10; stroke-width: 1.5px;"/>
        </g>
      </g>
      <g style="opacity: .7;">
        <line x1="899.1" y1="2162.8" x2="2510.2" y2="551.7" style="fill: none; stroke: #898989; stroke-miterlimit: 10; stroke-width: 4px;"/>
        <line x1="791.7" y1="2055.4" x2="2402.8" y2="444.3" style="fill: none; stroke: #898989; stroke-miterlimit: 10; stroke-width: 4px;"/>
        <line x1="684.3" y1="1948" x2="2295.4" y2="336.9" style="fill: none; stroke: #898989; stroke-miterlimit: 10; stroke-width: 4px;"/>
        <line x1="576.9" y1="1840.6" x2="2188" y2="229.5" style="fill: none; stroke: #898989; stroke-miterlimit: 10; stroke-width: 4px;"/>
        <line x1="469.5" y1="1733.2" x2="2080.6" y2="122" style="fill: none; stroke: #898989; stroke-miterlimit: 10; stroke-width: 4px;"/>
        <line x1="362.1" y1="1625.8" x2="1973.2" y2="14.7" style="fill: none; stroke: #898989; stroke-miterlimit: 10; stroke-width: 4px;"/>
        <line x1="254.7" y1="1518.4" x2="1865.8" y2="-92.8" style="fill: none; stroke: #898989; stroke-miterlimit: 10; stroke-width: 4px;"/>
        <line x1="147.2" y1="1411" x2="1758.4" y2="-200.2" style="fill: none; stroke: #898989; stroke-miterlimit: 10; stroke-width: 4px;"/>
        <line x1="39.8" y1="1303.5" x2="1651" y2="-307.6" style="fill: none; stroke: #898989; stroke-miterlimit: 10; stroke-width: 4px;"/>
        <line x1="-67.6" y1="1196.1" x2="1543.6" y2="-415" style="fill: none; stroke: #898989; stroke-miterlimit: 10; stroke-width: 4px;"/>
        <line x1="-175" y1="1088.7" x2="1436.2" y2="-522.4" style="fill: none; stroke: #898989; stroke-miterlimit: 10; stroke-width: 4px;"/>
        <line x1="-282.4" y1="981.3" x2="1328.7" y2="-629.8" style="fill: none; stroke: #898989; stroke-miterlimit: 10; stroke-width: 4px;"/>
        <line x1="-389.8" y1="873.9" x2="1221.3" y2="-737.2" style="fill: none; stroke: #898989; stroke-miterlimit: 10; stroke-width: 4px;"/>
        <line x1="-497.2" y1="766.5" x2="1113.9" y2="-844.6" style="fill: none; stroke: #898989; stroke-miterlimit: 10; stroke-width: 4px;"/>
        <line x1="899.1" y1="-844.6" x2="2510.2" y2="766.5" style="fill: none; stroke: #898989; stroke-miterlimit: 10; stroke-width: 4px;"/>
        <line x1="791.7" y1="-737.2" x2="2402.8" y2="873.9" style="fill: none; stroke: #898989; stroke-miterlimit: 10; stroke-width: 4px;"/>
        <line x1="684.3" y1="-629.8" x2="2295.4" y2="981.3" style="fill: none; stroke: #898989; stroke-miterlimit: 10; stroke-width: 4px;"/>
        <line x1="576.9" y1="-522.4" x2="2188" y2="1088.7" style="fill: none; stroke: #898989; stroke-miterlimit: 10; stroke-width: 4px;"/>
        <line x1="469.5" y1="-415" x2="2080.6" y2="1196.1" style="fill: none; stroke: #898989; stroke-miterlimit: 10; stroke-width: 4px;"/>
        <line x1="362.1" y1="-307.6" x2="1973.2" y2="1303.5" style="fill: none; stroke: #898989; stroke-miterlimit: 10; stroke-width: 4px;"/>
        <line x1="254.7" y1="-200.2" x2="1865.8" y2="1411" style="fill: none; stroke: #898989; stroke-miterlimit: 10; stroke-width: 4px;"/>
        <line x1="147.2" y1="-92.8" x2="1758.4" y2="1518.4" style="fill: none; stroke: #898989; stroke-miterlimit: 10; stroke-width: 4px;"/>
        <line x1="39.8" y1="14.7" x2="1651" y2="1625.8" style="fill: none; stroke: #898989; stroke-miterlimit: 10; stroke-width: 4px;"/>
        <line x1="-67.6" y1="122" x2="1543.6" y2="1733.2" style="fill: none; stroke: #898989; stroke-miterlimit: 10; stroke-width: 4px;"/>
        <line x1="-175" y1="229.5" x2="1436.2" y2="1840.6" style="fill: none; stroke: #898989; stroke-miterlimit: 10; stroke-width: 4px;"/>
        <line x1="-282.4" y1="336.9" x2="1328.7" y2="1948" style="fill: none; stroke: #898989; stroke-miterlimit: 10; stroke-width: 4px;"/>
        <line x1="-389.8" y1="444.3" x2="1221.3" y2="2055.4" style="fill: none; stroke: #898989; stroke-miterlimit: 10; stroke-width: 4px;"/>
        <line x1="-497.2" y1="551.7" x2="1113.9" y2="2162.8" style="fill: none; stroke: #898989; stroke-miterlimit: 10; stroke-width: 4px;"/>
      </g>
      <g>
        <line x1="899.1" y1="2056.8" x2="2510.2" y2="445.7" style="fill: none; stroke: #c9c9c9; stroke-miterlimit: 10; stroke-width: 9.3px;"/>
        <line x1="791.7" y1="1949.4" x2="2402.8" y2="338.3" style="fill: none; stroke: #c9c9c9; stroke-miterlimit: 10; stroke-width: 9.3px;"/>
        <line x1="684.3" y1="1842" x2="2295.4" y2="230.9" style="fill: none; stroke: #c9c9c9; stroke-miterlimit: 10; stroke-width: 9.3px;"/>
        <line x1="576.9" y1="1734.6" x2="2188" y2="123.5" style="fill: none; stroke: #c9c9c9; stroke-miterlimit: 10; stroke-width: 9.3px;"/>
        <line x1="469.5" y1="1627.2" x2="2080.6" y2="16.1" style="fill: none; stroke: #c9c9c9; stroke-miterlimit: 10; stroke-width: 9.3px;"/>
        <line x1="362.1" y1="1519.8" x2="1973.2" y2="-91.3" style="fill: none; stroke: #c9c9c9; stroke-miterlimit: 10; stroke-width: 9.3px;"/>
        <line x1="254.7" y1="1412.4" x2="1865.8" y2="-198.8" style="fill: none; stroke: #c9c9c9; stroke-miterlimit: 10; stroke-width: 9.3px;"/>
        <line x1="147.2" y1="1305" x2="1758.4" y2="-306.2" style="fill: none; stroke: #c9c9c9; stroke-miterlimit: 10; stroke-width: 9.3px;"/>
        <line x1="39.8" y1="1197.5" x2="1651" y2="-413.6" style="fill: none; stroke: #c9c9c9; stroke-miterlimit: 10; stroke-width: 9.3px;"/>
        <line x1="-67.6" y1="1090.1" x2="1543.6" y2="-521" style="fill: none; stroke: #c9c9c9; stroke-miterlimit: 10; stroke-width: 9.3px;"/>
        <line x1="-175" y1="982.7" x2="1436.2" y2="-628.4" style="fill: none; stroke: #c9c9c9; stroke-miterlimit: 10; stroke-width: 9.3px;"/>
        <line x1="-282.4" y1="875.3" x2="1328.7" y2="-735.8" style="fill: none; stroke: #c9c9c9; stroke-miterlimit: 10; stroke-width: 9.3px;"/>
        <line x1="-389.8" y1="767.9" x2="1221.3" y2="-843.2" style="fill: none; stroke: #c9c9c9; stroke-miterlimit: 10; stroke-width: 9.3px;"/>
        <line x1="-497.2" y1="660.5" x2="1113.9" y2="-950.6" style="fill: none; stroke: #c9c9c9; stroke-miterlimit: 10; stroke-width: 9.3px;"/>
        <line x1="899.1" y1="-950.6" x2="2510.2" y2="660.5" style="fill: none; stroke: #c9c9c9; stroke-miterlimit: 10; stroke-width: 9.3px;"/>
        <line x1="791.7" y1="-843.2" x2="2402.8" y2="767.9" style="fill: none; stroke: #c9c9c9; stroke-miterlimit: 10; stroke-width: 9.3px;"/>
        <line x1="684.3" y1="-735.8" x2="2295.4" y2="875.3" style="fill: none; stroke: #c9c9c9; stroke-miterlimit: 10; stroke-width: 9.3px;"/>
        <line x1="576.9" y1="-628.4" x2="2188" y2="982.7" style="fill: none; stroke: #c9c9c9; stroke-miterlimit: 10; stroke-width: 9.3px;"/>
        <line x1="469.5" y1="-521" x2="2080.6" y2="1090.1" style="fill: none; stroke: #c9c9c9; stroke-miterlimit: 10; stroke-width: 9.3px;"/>
        <line x1="362.1" y1="-413.6" x2="1973.2" y2="1197.5" style="fill: none; stroke: #c9c9c9; stroke-miterlimit: 10; stroke-width: 9.3px;"/>
        <line x1="254.7" y1="-306.2" x2="1865.8" y2="1305" style="fill: none; stroke: #c9c9c9; stroke-miterlimit: 10; stroke-width: 9.3px;"/>
        <line x1="147.2" y1="-198.8" x2="1758.4" y2="1412.4" style="fill: none; stroke: #c9c9c9; stroke-miterlimit: 10; stroke-width: 9.3px;"/>
        <line x1="39.8" y1="-91.3" x2="1651" y2="1519.8" style="fill: none; stroke: #c9c9c9; stroke-miterlimit: 10; stroke-width: 9.3px;"/>
        <line x1="-67.6" y1="16.1" x2="1543.6" y2="1627.2" style="fill: none; stroke: #c9c9c9; stroke-miterlimit: 10; stroke-width: 9.3px;"/>
        <line x1="-175" y1="123.5" x2="1436.2" y2="1734.6" style="fill: none; stroke: #c9c9c9; stroke-miterlimit: 10; stroke-width: 9.3px;"/>
        <line x1="-282.4" y1="230.9" x2="1328.7" y2="1842" style="fill: none; stroke: #c9c9c9; stroke-miterlimit: 10; stroke-width: 9.3px;"/>
        <line x1="-389.8" y1="338.3" x2="1221.3" y2="1949.4" style="fill: none; stroke: #c9c9c9; stroke-miterlimit: 10; stroke-width: 9.3px;"/>
        <line x1="-497.2" y1="445.7" x2="1113.9" y2="2056.8" style="fill: none; stroke: #c9c9c9; stroke-miterlimit: 10; stroke-width: 9.3px;"/>
      </g>
    </g>
  </g>
  <rect x=".5" y=".5" width="1920" height="1080" style="fill: url(#d); stroke: url(#e); stroke-miterlimit: 10;"/>
</svg>