<?xml version="1.0" encoding="UTF-8"?><svg xmlns="http://www.w3.org/2000/svg" xmlns:xlink="http://www.w3.org/1999/xlink" viewBox="0 0 1920 1080"><defs><linearGradient id="b" x1="1381.57" y1="315.29" x2="1383.61" y2="180.8" gradientUnits="userSpaceOnUse"><stop offset="0" stop-color="#fff"/><stop offset=".96" stop-color="#004961"/></linearGradient></defs><g style="isolation:isolate;"><g id="a"><polygon points="1515.71 319.5 1247.3 319.5 1247.3 319.45 1247.59 312.16 1247.84 305.97 1247.89 304.62 1248.45 290.74 1248.46 290.53 1248.47 290.09 1249.15 273.24 1249.2 271.96 1249.23 271.17 1250.38 242.22 1253.15 172.85 1511.83 173.21 1515.71 319.5" style="fill:#fff; mix-blend-mode:color-dodge; opacity:.81;"/><polygon points="1515.71 319.5 1247.3 319.5 1247.3 319.45 1247.59 312.16 1247.84 305.97 1247.89 304.62 1248.45 290.74 1248.46 290.53 1248.47 290.09 1249.15 273.24 1249.2 271.96 1249.23 271.17 1250.38 242.22 1253.15 172.85 1511.83 173.21 1515.71 319.5" style="fill:url(#b); mix-blend-mode:color-dodge; opacity:.81;"/></g></g></svg>