<?xml version="1.0" encoding="UTF-8"?><svg id="a" xmlns="http://www.w3.org/2000/svg" viewBox="0 0 1920 1080"><path d="M1419.02,270.59c.81-.37,1.5-1.05,1.88-2.09.11-3.47.15-4.31.15-7.79-.44.14-.87.23-1.32.28v.77c0,3.48-.04,4.32-.15,7.79-.15.4-.34.75-.57,1.04Z" style="fill:#4d4d4d;"/><path d="M1410.06,248.71v6.95c.25-.16.47-.08.66.33.22.46.43.9.66,1.32v-9.46c-.59-.04-1.22.27-1.32.86Z" style="fill:#4d4d4d;"/><path d="M1409.03,316.31c1.2-.6,2.14-1.81,2.35-3.63v-55.38c-.22-.42-.44-.86-.66-1.32-.19-.41-.41-.49-.66-.33v58.07c-.12,1.07-.5,1.93-1.03,2.57Z" style="fill:#4d4d4d;"/><path d="M1386.1,270.55c1.03-.47,1.85-1.44,2.05-2.9v-11.73c-.44.61-.88,1.17-1.32,1.67v11.11c-.1.74-.37,1.36-.74,1.84Z" style="fill:#4d4d4d;"/><path d="M1397,316.24c1.09-.58,1.99-1.62,2.39-3.14l.02-34.52c.03-.28.06-.58.12-.86-.12,0-.24.02-.37.04-.92.19-.99,1.1-1.06,1.86l-.02,34.52c-.22.84-.6,1.53-1.07,2.09Z" style="fill:#4d4d4d;"/><path d="M1380.7,245.08v22.48c.36,2.94,3.31,3.96,5.39,2.99.37-.49.63-1.1.74-1.84v-20c.1-.62.73-.91,1.32-.86v-.2c.19-1.12,2.07-1.16,2.37-.07v5.29s.02,59.63.02,59.63c.32,3.85,3.9,5.1,6.46,3.73.47-.55.85-1.25,1.07-2.09l.02-34.52c.08-.77.15-1.67,1.06-1.86.13-.03.25-.04.37-.04.12-.48.36-.88.94-1.01,1.16-.25,2.02.54,2.05,1.69v34.53c.73,3.41,4.14,4.57,6.52,3.37.53-.65.91-1.5,1.03-2.57v-65.03c.1-.6.73-.9,1.32-.86v-.19c.18-1.11,2.2-1.2,2.39,0v19.46c-.06,3.07,3.04,4.48,5.26,3.46.23-.29.42-.64.57-1.04.11-3.47.15-4.31.15-7.79v-.77c0-5.89-.07-9.15-.02-15.03-.53-5.17-5.33-9.15-10.42-9.44-6.55-.38-13.54.22-20.13.09-1.88.22-3.61.92-5.13,1.97h0s-.08.08-.12.11c-1.73,1.62-3.06,3.99-3.23,6.39Z" style="fill:#fff;"/><path d="M1384.06,238.58c1.52-1.06,3.25-1.75,5.13-1.97,6.58.12,13.57-.47,20.13-.09,5.09.29,9.89,4.27,10.42,9.44-.06,5.88.02,9.14.02,15.03.44-.05.88-.14,1.32-.28.01-6.15-.08-9.67-.02-15.8-.53-5.17-5.33-9.15-10.42-9.44-6.55-.38-13.54.22-20.13.09-2.45.29-4.64,1.38-6.44,3.03Z" style="fill:#535353;"/><path d="M1386.84,248.71v8.89c.43-.51.87-1.06,1.32-1.67v-8.07c-.59-.05-1.21.23-1.32.86Z" style="fill:#4d4d4d;"/><path d="M1380.7,245.08v22.48c.36,2.94,3.31,3.96,5.39,2.99.37-.49.63-1.1.74-1.84v-20c.1-.62.73-.91,1.32-.86v-.2c.19-1.12,2.07-1.16,2.37-.07v5.29s.02,59.63.02,59.63c.32,3.85,3.9,5.1,6.46,3.73.47-.55.85-1.25,1.07-2.09l.02-34.52c.08-.77.15-1.67,1.06-1.86.13-.03.25-.04.37-.04.12-.48.36-.88.94-1.01,1.16-.25,2.02.54,2.05,1.69v34.53c.73,3.41,4.14,4.57,6.52,3.37.53-.65.91-1.5,1.03-2.57v-65.03c.1-.6.73-.9,1.32-.86v-.19c.18-1.11,2.2-1.2,2.39,0v19.46c-.06,3.07,3.04,4.48,5.26,3.46.23-.29.42-.64.57-1.04.11-3.47.15-4.31.15-7.79v-.77c0-5.89-.07-9.15-.02-15.03-.53-5.17-5.33-9.15-10.42-9.44-6.55-.38-13.54.22-20.13.09-1.88.22-3.61.92-5.13,1.97h0s-.08.08-.12.11c-1.73,1.62-3.06,3.99-3.23,6.39Z" style="fill:#494949;"/><path d="M1380.7,245.08v16.71c1.88-.33,3.94-1.62,6.13-4.19v-8.89c.1-.62.73-.91,1.32-.86v-.2c.19-1.12,2.07-1.16,2.37-.07v5.29c4.65-3.83,8.46,15.5,11.74,15.65,3.19.15,6.13-11.78,7.8-12.87v-6.95c.1-.6.73-.9,1.32-.86v-.19c.18-1.11,2.2-1.2,2.39,0v13.2c1.94,2.19,3.98.34,5.98.13,0-5.89-.07-9.15-.02-15.03-.53-5.17-5.33-9.15-10.42-9.44-6.55-.38-13.54.22-20.13.09-1.88.22-3.61.92-5.13,1.97h0s-.08.08-.12.11c-1.73,1.62-3.06,3.99-3.23,6.39Z" style="fill:#6c6c6c;"/><path d="M1405.83,231.51c2.06-1.57,3.38-4.04,3.38-6.83,0-.2,0-.4-.02-.6-.02-.3-.06-.6-.11-.89-.26.21-.53.4-.81.59,0,.03.01.06.02.09.08.48.13.97.13,1.47v.02c0,2.41-.99,4.59-2.59,6.15Z" style="fill:#303030;"/><path d="M1392.06,224.68c0,3.48,2.07,6.47,5.04,7.82,1.08.49,2.28.76,3.54.76,1.95,0,3.75-.65,5.2-1.75,1.6-1.56,2.59-3.74,2.59-6.15v-.02c0-.5-.04-.99-.13-1.47,0-.03-.01-.06-.02-.09-.74-3.99-4.23-7-8.43-7-1.95,0-3.75.65-5.19,1.75-1.19,1.15-2.04,2.65-2.41,4.32-.13.59-.19,1.2-.19,1.83Z" style="fill:#fff;"/><path d="M1392.06,224.68c0,3.48,2.07,6.47,5.04,7.82,1.08.49,2.28.76,3.54.76,1.95,0,3.75-.65,5.2-1.75,1.6-1.56,2.59-3.74,2.59-6.15v-.02c0-.5-.04-.99-.13-1.47,0-.03-.01-.06-.02-.09-.74-3.99-4.23-7-8.43-7-1.95,0-3.75.65-5.19,1.75-1.19,1.15-2.04,2.65-2.41,4.32-.13.59-.19,1.2-.19,1.83Z" style="fill:#707070;"/><path d="M1394.66,218.53c1.44-1.1,3.24-1.75,5.19-1.75,4.2,0,7.69,3.01,8.43,7,.28-.19.55-.38.81-.59-.7-4.03-4.22-7.09-8.45-7.09-2.32,0-4.43.92-5.98,2.42Z" style="fill:#303030;"/><path d="M1392.06,224.68c0,3.48,2.07,6.47,5.04,7.82,4.71-.69,8.78-3.37,11.33-7.16.27-.41.53-.83.77-1.26-.02-.3-.06-.6-.11-.89-.7-4.03-4.22-7.09-8.45-7.09-2.32,0-4.43.92-5.98,2.42-1.19,1.15-2.04,2.65-2.41,4.32-.13.59-.19,1.2-.19,1.83Z" style="fill:#494949;"/></svg>